<svg xmlns="http://www.w3.org/2000/svg" width="23" height="20"><path fill="#FFF" d="M3.797 9.201l.887 3.34h1.303l1.65-5.19H6.295l-.978 3.4-.858-3.4H3.15l-.885 3.4-.96-3.4H-.012l1.622 5.19h1.32l.867-3.34zm8.35-1.85h-1.309l-.885 3.4-.965-3.4H7.672l1.625 5.19h1.321l.867-3.34.889 3.34h1.302l1.648-5.19h-1.337l-.983 3.4-.857-3.4zm9.524 0l-.98 3.4-.855-3.4h-1.312l-.886 3.4-.959-3.4h-1.32l1.627 5.19h1.319l.867-3.34.885 3.34h1.307l1.648-5.19h-1.341zM11.499 0C7.534 0 4.123 2.374 2.555 5.788h17.891C18.875 2.374 15.465 0 11.499 0zm0 19.999c3.966 0 7.372-2.372 8.944-5.788H2.557c1.568 3.416 4.977 5.788 8.942 5.788z"/></svg>